:SAMPLES-PER-SECOND 30
:FULLY-SPECIFIED
:DEGREES
93
root  -1.4162 39.9331 0.945191 -170.932 -79.3722 161.885
RightUpLeg  -6.72188 -2.76495 -6.40649
RightLeg  29.5271 -2.68119 -1.87417
RightFoot  -5.52468 -0.520963 9.49478
RightToes  -3.1126e-008 1.75238e-005 3.56266e-009
Spine  2.91713 -0.302169 -10.7474
Spine1  19.5728 -1.33925 1.12537
HEad  -25.4178 -6.20737 3.04369
LeftShoulder1  2.50246 -5.47122 -21.5284
LeftArm  -48.7804 -15.2992 -56.1029
LeftForeArm  31.4109 -65.3728 -21.8484
LeftHand  -0.204687 2.3875 7.55491
RightShoulder  3.736 7.48767 28.0226
RightArm  -14.569 -20.5572 47.3128
RightForeArm  25.6533 42.966 8.71163
RightHand  0.132729 2.57806 1.80096
LeftUpLeg  4.36633 5.69015 -0.655712
LeftLeg  15.0336 18.1901 1.29703
LeftFoot  -9.94565 0.0987134 -3.20283
LeftToes  4.78349e-008 1.46828e-008 1.33736e-009
94
root  -1.16899 39.7385 1.18029 -171.673 -76.5773 160.197
RightUpLeg  -6.22295 -0.375799 -7.60258
RightLeg  31.5655 -2.06546 -1.60487
RightFoot  -6.13312 -0.479463 9.60057
RightToes  -3.1126e-008 1.75238e-005 3.56266e-009
Spine  3.57908 0.541761 -11.9901
Spine1  23.8042 -0.0509079 -0.746911
HEad  -28.9894 -8.19441 5.78648
LeftShoulder1  2.62026 -5.745 -22.011
LeftArm  -45.9247 -15.2433 -53.7264
LeftForeArm  39.1137 -64.714 -20.07
LeftHand  -0.182554 2.08672 6.24178
RightShoulder  3.89944 7.79712 28.5504
RightArm  -16.6864 -19.8476 48.1247
RightForeArm  27.2382 47.7825 10.3416
RightHand  0.321991 1.89718 4.90471
LeftUpLeg  6.26177 5.72438 -1.94524
LeftLeg  16.01 20.8976 1.87136
LeftFoot  -10.543 0.0852794 -3.1599
LeftToes  4.78349e-008 1.46828e-008 1.33736e-009
95
root  -0.985227 39.6579 1.42562 -175.231 -74.8337 162.31
RightUpLeg  -5.58721 1.00156 -7.6342
RightLeg  31.8806 -1.49305 -1.23809
RightFoot  -6.04815 -0.496587 9.82533
RightToes  -3.1126e-008 1.75238e-005 3.56266e-009
Spine  3.67506 0.556138 -12.0251
Spine1  26.9295 0.615512 -2.54763
HEad  -31.2697 -10.0267 7.72715
LeftShoulder1  2.68141 -5.90614 -22.1848
LeftArm  -43.6438 -13.4274 -51.8856
LeftForeArm  47.6848 -63.2796 -17.6384
LeftHand  -0.161552 -0.4509 3.39702
RightShoulder  4.01052 8.10726 28.5844
RightArm  -18.4089 -18.9593 48.9072
RightForeArm  30.445 51.9671 11.9228
RightHand  0.55646 2.46295 8.05563
LeftUpLeg  7.19788 6.29753 -2.13154
LeftLeg  16.9333 22.1687 2.60519
LeftFoot  -10.8958 0.0768704 -2.95704
LeftToes  4.78349e-008 1.46828e-008 1.33736e-009
96
root  -0.852028 39.696 1.6587 -179.63 -74.1946 166.271
RightUpLeg  -4.91384 1.20226 -6.9318
RightLeg  30.7813 -1.02268 -0.891646
RightFoot  -5.27755 -0.566986 10.002
RightToes  -3.1126e-008 1.75238e-005 3.56266e-009
Spine  4.00583 -0.0228519 -11.4273
Spine1  27.9944 0.499564 -3.71481
HEad  -32.5072 -12.3567 8.95578
LeftShoulder1  2.72123 -5.96643 -22.4389
LeftArm  -41.9042 -10.4304 -50.7226
LeftForeArm  57.6751 -59.9576 -14.1283
LeftHand  -0.140764 -4.36289 1.91203
RightShoulder  3.99197 8.13525 28.3342
RightArm  -20.014 -18.7678 49.1922
RightForeArm  32.0028 57.1207 14.6556
RightHand  0.817824 2.20758 12.289
LeftUpLeg  7.39644 6.84033 -1.50997
LeftLeg  17.2614 22.4041 3.16912
LeftFoot  -10.8991 0.0751667 -2.57936
LeftToes  4.78349e-008 1.46828e-008 1.33736e-009
97
root  -0.806912 39.8383 1.84796 175.564 -73.7454 171.703
RightUpLeg  -4.63959 1.0402 -5.65126
RightLeg  28.6747 -0.641567 -0.604185
RightFoot  -3.82479 -0.695485 10.1617
RightToes  -3.1126e-008 1.75238e-005 3.56266e-009
Spine  3.76412 -0.376328 -10.6449
Spine1  27.414 0.15299 -3.55975
HEad  -31.42 -15.0994 9.40691
LeftShoulder1  2.70209 -5.94165 -22.3043
LeftArm  -40.4989 -6.84655 -51.283
LeftForeArm  65.9693 -53.5305 -10.1289
LeftHand  -0.252358 -7.62332 2.57699
RightShoulder  3.80339 7.71837 27.9159
RightArm  -20.1227 -19.8427 47.3606
RightForeArm  33.4847 64.2304 20.4204
RightHand  0.777074 0.835352 14.382
LeftUpLeg  7.08314 6.84405 -0.424894
LeftLeg  16.6579 22.8703 3.32561
LeftFoot  -10.4809 0.0803574 -2.30759
LeftToes  4.78349e-008 1.46828e-008 1.33736e-009
98
root  -0.866704 40.0144 2.01557 171.462 -72.7251 176.869
RightUpLeg  -4.66492 1.09873 -4.29804
RightLeg  26.3677 -0.368157 -0.420019
RightFoot  -2.08628 -0.872369 10.5676
RightToes  -3.1126e-008 1.75238e-005 3.56266e-009
Spine  2.89211 -0.511566 -9.9231
Spine1  26.2499 -0.232005 -2.80352
HEad  -29.2609 -17.7684 8.42365
LeftShoulder1  2.65314 -5.786 -22.2504
LeftArm  -41.7385 -3.9786 -53.1222
LeftForeArm  68.1978 -43.0836 -6.38931
LeftHand  -0.471616 -8.64756 4.28859
RightShoulder  3.58355 7.50446 26.5329
RightArm  -20.4249 -21.0283 44.5477
RightForeArm  40.299 72.0107 32.0244
RightHand  0.733668 0.015552 15.7203
LeftUpLeg  6.78028 5.94918 0.34665
LeftLeg  15.5148 24.712 3.58264
LeftFoot  -9.82733 0.089297 -2.31006
LeftToes  4.78349e-008 1.46828e-008 1.33736e-009
99
root  -0.955044 40.1901 2.17839 168.954 -71.2976 -179.302
RightUpLeg  -4.96743 0.566394 -3.3234
RightLeg  23.9906 0.502552 0.0297911
RightFoot  -0.471719 -1.07222 11.2028
RightToes  -3.1126e-008 1.75238e-005 3.56266e-009
Spine  1.90806 -0.580125 -9.24027
Spine1  24.5394 -0.469249 -2.15447
HEad  -27.3127 -19.9398 7.29521
LeftShoulder1  2.48854 -5.31077 -21.9047
LeftArm  -45.6965 -2.37359 -55.3698
LeftForeArm  65.153 -29.0875 -2.65047
LeftHand  -0.600033 -6.39383 6.34439
RightShoulder  3.33949 7.1329 25.3191
RightArm  -21.5721 -20.6729 40.7306
RightForeArm  56.7347 77.7826 54.664
RightHand  0.846815 0.760992 15.8317
LeftUpLeg  6.45859 5.29642 0.863012
LeftLeg  13.8692 26.6967 3.66265
LeftFoot  -9.02512 0.0987583 -2.19622
LeftToes  4.78349e-008 1.46828e-008 1.33736e-009
100
root  -1.04874 40.3042 2.30726 167.996 -69.528 -177.156
RightUpLeg  -5.38242 -0.35223 -2.75233
RightLeg  22.0838 2.02568 0.693347
RightFoot  0.488812 -1.23186 11.885
RightToes  -3.1126e-008 1.75238e-005 3.56266e-009
Spine  1.39933 -0.356817 -8.7459
Spine1  22.0357 -0.35666 -1.74991
HEad  -25.0307 -21.1473 6.75445
LeftShoulder1  2.43874 -5.19595 -21.6927
LeftArm  -48.64 -1.30837 -56.6043
LeftForeArm  57.9393 -13.7801 2.93185
LeftHand  -0.626532 -2.7692 9.11524
RightShoulder  3.0119 6.58975 23.6923
RightArm  -24.788 -18.9644 37.1319
RightForeArm  82.9889 79.7505 86.5308
RightHand  0.994866 2.12879 15.1202
LeftUpLeg  6.16852 5.15595 1.17905
LeftLeg  12.4663 28.5041 3.69401
LeftFoot  -8.39759 0.109519 -2.30291
LeftToes  4.78349e-008 1.46828e-008 1.33736e-009
101
root  -1.13845 40.3706 2.42437 167.526 -68.2605 -175.824
RightUpLeg  -5.36783 -2.31702 -2.5963
RightLeg  20.2795 4.07123 1.45761
RightFoot  0.895324 -1.36807 12.773
RightToes  -3.1126e-008 1.75238e-005 3.56266e-009
Spine  0.990214 -0.392275 -8.67048
Spine1  20.3585 -0.453996 -1.50632
HEad  -23.5205 -21.7988 7.08481
LeftShoulder1  2.37017 -4.92154 -21.796
LeftArm  -50.3896 0.671014 -57.4508
LeftForeArm  52.0066 -2.84224 8.74581
LeftHand  -0.426206 -0.11198 8.76907
RightShoulder  2.76876 6.21383 22.2659
RightArm  -30.637 -15.0603 33.8076
RightForeArm  95.7756 79.1589 104.887
RightHand  0.809054 2.02479 12.3643
LeftUpLeg  5.96965 5.09718 1.38817
LeftLeg  11.49 29.8692 3.61897
LeftFoot  -8.06101 0.11336 -2.269
LeftToes  4.78349e-008 1.46828e-008 1.33736e-009
102
root  -1.20104 40.4011 2.559 167.13 -66.7277 -175.317
RightUpLeg  -4.87277 -3.91861 -2.71751
RightLeg  18.975 6.41425 2.25059
RightFoot  0.697796 -1.52286 14.42
RightToes  -3.1126e-008 1.75238e-005 3.56266e-009
Spine  0.985715 -0.283948 -7.85002
Spine1  19.6272 0.0574298 -2.55948
HEad  -23.2469 -22.2914 8.08358
LeftShoulder1  2.40594 -5.18619 -21.3223
LeftArm  -55.2834 4.7813 -58.5025
LeftForeArm  54.9332 1.32543 12.8241
LeftHand  -0.131378 2.08313 4.26221
RightShoulder  2.56055 5.95181 20.7535
RightArm  -38.7849 -9.90842 31.1269
RightForeArm  94.5027 79.0848 104.814
RightHand  0.694379 2.88752 9.80244
LeftUpLeg  6.27244 5.12282 1.47013
LeftLeg  11.0983 31.3595 3.67392
LeftFoot  -7.96258 0.111555 -2.25193
LeftToes  4.78349e-008 1.46828e-008 1.33736e-009
103
root  -1.22107 40.3672 2.69291 167.252 -65.4251 -175.741
RightUpLeg  -4.43339 -4.95403 -3.12816
RightLeg  18.4898 8.16902 2.83928
RightFoot  0.0714425 -1.52109 15.1448
RightToes  -3.1126e-008 1.75238e-005 3.56266e-009
Spine  1.11854 0.0110538 -7.99466
Spine1  20.0193 0.450573 -2.69668
HEad  -24.223 -22.0325 9.56092
LeftShoulder1  2.39428 -5.24132 -20.9921
LeftArm  -56.5208 9.95102 -59.283
LeftForeArm  63.9867 1.32496 13.7249
LeftHand  0.0684437 0.759499 -1.20505
RightShoulder  2.32183 5.77392 18.5459
RightArm  -46.5466 -4.70185 28.3772
RightForeArm  76.9107 79.0383 94.8594
RightHand  0.0354204 3.61002 0.106888
LeftUpLeg  6.31446 5.1213 1.19009
LeftLeg  11.9388 32.6902 4.29468
LeftFoot  -8.2483 0.10931 -2.21131
LeftToes  4.78349e-008 1.46828e-008 1.33736e-009
